<mxfile host="app.diagrams.net" agent="Mozilla/5.0 (Macintosh; Intel Mac OS X 10_15_7) AppleWebKit/537.36 (KHTML, like Gecko) Chrome/137.0.0.0 Safari/537.36" version="27.1.0">
  <diagram name="Page-1" id="sL7vuqgkMKdMd4F-gEKR">
    <mxGraphModel grid="0" page="1" gridSize="10" guides="1" tooltips="1" connect="1" arrows="1" fold="1" pageScale="1" pageWidth="1600" pageHeight="900" background="#ffffff" math="0" shadow="0">
      <root>
        <mxCell id="0" />
        <mxCell id="1" parent="0" />
        <mxCell id="-2G8b0cuvRmea7sw8rwf-1" value="" style="group" connectable="0" vertex="1" parent="1">
          <mxGeometry x="363" y="194" width="757" height="471" as="geometry" />
        </mxCell>
        <mxCell id="fds9NMfFk_6XAMzJDmua-1" value="" style="rounded=0;whiteSpace=wrap;html=1;glass=0;dashed=1;strokeWidth=2;fillColor=none;" vertex="1" parent="-2G8b0cuvRmea7sw8rwf-1">
          <mxGeometry y="21" width="177.25" height="450" as="geometry" />
        </mxCell>
        <mxCell id="fds9NMfFk_6XAMzJDmua-2" value="&lt;font style=&quot;font-size: 20px;&quot;&gt;Source&lt;/font&gt;" style="text;html=1;align=center;verticalAlign=middle;resizable=0;points=[];autosize=1;fillColor=default;" vertex="1" parent="-2G8b0cuvRmea7sw8rwf-1">
          <mxGeometry x="43.629999999999995" width="90" height="40" as="geometry" />
        </mxCell>
        <mxCell id="fds9NMfFk_6XAMzJDmua-5" value="" style="rounded=0;whiteSpace=wrap;html=1;glass=0;dashed=1;strokeWidth=2;fillColor=none;strokeColor=light-dark(#707070, #ededed);" vertex="1" parent="-2G8b0cuvRmea7sw8rwf-1">
          <mxGeometry x="197" y="21" width="560" height="450" as="geometry" />
        </mxCell>
        <mxCell id="fds9NMfFk_6XAMzJDmua-6" value="&lt;font style=&quot;font-size: 20px;&quot;&gt;Data Warehouse&lt;/font&gt;" style="text;html=1;align=center;verticalAlign=middle;resizable=0;points=[];autosize=1;fillColor=default;" vertex="1" parent="-2G8b0cuvRmea7sw8rwf-1">
          <mxGeometry x="392" width="170" height="40" as="geometry" />
        </mxCell>
        <mxCell id="fds9NMfFk_6XAMzJDmua-8" value="Bronze layer" style="rounded=0;whiteSpace=wrap;html=1;direction=south;fillColor=#ffe6cc;strokeColor=#d79b00;" vertex="1" parent="-2G8b0cuvRmea7sw8rwf-1">
          <mxGeometry x="247" y="66" width="130" height="40" as="geometry" />
        </mxCell>
        <mxCell id="fds9NMfFk_6XAMzJDmua-9" value="" style="rounded=0;whiteSpace=wrap;html=1;direction=south;fillColor=none;strokeColor=#d79b00;dashed=1;strokeWidth=2;" vertex="1" parent="-2G8b0cuvRmea7sw8rwf-1">
          <mxGeometry x="240.25" y="116" width="140" height="330" as="geometry" />
        </mxCell>
        <mxCell id="fds9NMfFk_6XAMzJDmua-10" value="Silver layer" style="rounded=0;whiteSpace=wrap;html=1;direction=south;fillColor=#f5f5f5;strokeColor=#666666;fontColor=#333333;" vertex="1" parent="-2G8b0cuvRmea7sw8rwf-1">
          <mxGeometry x="417" y="66" width="130" height="40" as="geometry" />
        </mxCell>
        <mxCell id="fds9NMfFk_6XAMzJDmua-11" value="" style="rounded=0;whiteSpace=wrap;html=1;direction=south;fillColor=none;strokeColor=#666666;dashed=1;strokeWidth=2;fontColor=#333333;" vertex="1" parent="-2G8b0cuvRmea7sw8rwf-1">
          <mxGeometry x="412" y="116" width="140" height="330" as="geometry" />
        </mxCell>
        <mxCell id="fds9NMfFk_6XAMzJDmua-12" value="Gold layer" style="rounded=0;whiteSpace=wrap;html=1;direction=south;fillColor=#fff2cc;strokeColor=#d6b656;" vertex="1" parent="-2G8b0cuvRmea7sw8rwf-1">
          <mxGeometry x="587" y="66" width="130" height="40" as="geometry" />
        </mxCell>
        <mxCell id="fds9NMfFk_6XAMzJDmua-13" value="" style="rounded=0;whiteSpace=wrap;html=1;direction=south;fillColor=none;strokeColor=#d79b00;dashed=1;strokeWidth=2;" vertex="1" parent="-2G8b0cuvRmea7sw8rwf-1">
          <mxGeometry x="582" y="116" width="140" height="330" as="geometry" />
        </mxCell>
        <mxCell id="fds9NMfFk_6XAMzJDmua-18" value="CRM" style="text;html=1;align=center;verticalAlign=middle;resizable=0;points=[];autosize=1;strokeColor=none;fillColor=none;" vertex="1" parent="-2G8b0cuvRmea7sw8rwf-1">
          <mxGeometry x="13.625" y="191.05" width="50" height="30" as="geometry" />
        </mxCell>
        <mxCell id="fds9NMfFk_6XAMzJDmua-19" value="ERP" style="text;html=1;align=center;verticalAlign=middle;resizable=0;points=[];autosize=1;strokeColor=none;fillColor=none;" vertex="1" parent="-2G8b0cuvRmea7sw8rwf-1">
          <mxGeometry x="13.625" y="252" width="50" height="30" as="geometry" />
        </mxCell>
        <mxCell id="fds9NMfFk_6XAMzJDmua-21" value="" style="group;fontStyle=4" vertex="1" connectable="0" parent="-2G8b0cuvRmea7sw8rwf-1">
          <mxGeometry x="25.319999999999993" y="178" width="30.62" height="20" as="geometry" />
        </mxCell>
        <mxCell id="fds9NMfFk_6XAMzJDmua-22" value="" style="image;aspect=fixed;html=1;points=[];align=center;fontSize=12;image=img/lib/azure2/general/Folder_Blank.svg;" vertex="1" parent="fds9NMfFk_6XAMzJDmua-21">
          <mxGeometry x="2.4974449675531276" width="19.71428571428571" height="16.000000000000004" as="geometry" />
        </mxCell>
        <mxCell id="fds9NMfFk_6XAMzJDmua-23" value="" style="sketch=0;aspect=fixed;pointerEvents=1;shadow=0;dashed=0;html=1;strokeColor=none;labelPosition=center;verticalLabelPosition=bottom;verticalAlign=top;align=center;fillColor=#3399FF;shape=mxgraph.mscae.enterprise.document;movable=1;resizable=1;rotatable=1;deletable=1;editable=1;locked=0;connectable=1;" vertex="1" parent="fds9NMfFk_6XAMzJDmua-21">
          <mxGeometry x="18.017256648428543" y="10.428571428571425" width="6.8571428571428585" height="8.571428571428571" as="geometry" />
        </mxCell>
        <mxCell id="fds9NMfFk_6XAMzJDmua-25" value="" style="endArrow=none;html=1;rounded=0;strokeWidth=1;dashed=1;strokeColor=light-dark(#707070, #ededed);" edge="1" parent="-2G8b0cuvRmea7sw8rwf-1">
          <mxGeometry width="50" height="50" relative="1" as="geometry">
            <mxPoint x="11.129999999999995" y="326" as="sourcePoint" />
            <mxPoint x="166.13" y="326" as="targetPoint" />
          </mxGeometry>
        </mxCell>
        <mxCell id="fds9NMfFk_6XAMzJDmua-26" value="&lt;b&gt;Object type&lt;/b&gt;: CSV Files&lt;div&gt;&lt;br&gt;&lt;/div&gt;&lt;div&gt;&lt;b&gt;Interface&lt;/b&gt;: Files in folders&lt;/div&gt;" style="text;html=1;align=left;verticalAlign=middle;resizable=0;points=[];autosize=1;strokeColor=none;fillColor=none;fontSize=8;" vertex="1" parent="-2G8b0cuvRmea7sw8rwf-1">
          <mxGeometry x="33.620000000000005" y="341.1" width="110" height="40" as="geometry" />
        </mxCell>
        <mxCell id="fds9NMfFk_6XAMzJDmua-27" value="" style="html=1;verticalLabelPosition=bottom;align=center;labelBackgroundColor=#ffffff;verticalAlign=top;strokeWidth=1;strokeColor=#d79b00;shadow=0;dashed=0;shape=mxgraph.ios7.icons.data;fillColor=#ffe6cc;" vertex="1" parent="-2G8b0cuvRmea7sw8rwf-1">
          <mxGeometry x="293.5" y="187" width="33.5" height="40.1" as="geometry" />
        </mxCell>
        <mxCell id="fds9NMfFk_6XAMzJDmua-28" value="Raw data" style="text;html=1;align=center;verticalAlign=middle;resizable=0;points=[];autosize=1;strokeColor=none;fillColor=none;fontSize=10;" vertex="1" parent="-2G8b0cuvRmea7sw8rwf-1">
          <mxGeometry x="277" y="234.10000000000002" width="70" height="30" as="geometry" />
        </mxCell>
        <mxCell id="fds9NMfFk_6XAMzJDmua-29" value="" style="html=1;verticalLabelPosition=bottom;align=center;labelBackgroundColor=#ffffff;verticalAlign=top;strokeWidth=1;strokeColor=#666666;shadow=0;dashed=0;shape=mxgraph.ios7.icons.data;fillColor=#f5f5f5;fontColor=#333333;" vertex="1" parent="-2G8b0cuvRmea7sw8rwf-1">
          <mxGeometry x="465.25" y="187" width="33.5" height="40.1" as="geometry" />
        </mxCell>
        <mxCell id="fds9NMfFk_6XAMzJDmua-30" value="Cleaned, Standardized&lt;div&gt;data&lt;/div&gt;" style="text;html=1;align=center;verticalAlign=middle;resizable=0;points=[];autosize=1;strokeColor=none;fillColor=none;fontSize=10;" vertex="1" parent="-2G8b0cuvRmea7sw8rwf-1">
          <mxGeometry x="417" y="234.10000000000002" width="130" height="40" as="geometry" />
        </mxCell>
        <mxCell id="fds9NMfFk_6XAMzJDmua-31" value="" style="html=1;verticalLabelPosition=bottom;align=center;labelBackgroundColor=#ffffff;verticalAlign=top;strokeWidth=1;strokeColor=#d6b656;shadow=0;dashed=0;shape=mxgraph.ios7.icons.data;fillColor=#fff2cc;" vertex="1" parent="-2G8b0cuvRmea7sw8rwf-1">
          <mxGeometry x="635.25" y="187" width="33.5" height="40.1" as="geometry" />
        </mxCell>
        <mxCell id="fds9NMfFk_6XAMzJDmua-32" value="&lt;div&gt;Business data&lt;/div&gt;" style="text;html=1;align=center;verticalAlign=middle;resizable=0;points=[];autosize=1;strokeColor=none;fillColor=none;fontSize=10;" vertex="1" parent="-2G8b0cuvRmea7sw8rwf-1">
          <mxGeometry x="607" y="234.10000000000002" width="90" height="30" as="geometry" />
        </mxCell>
        <mxCell id="fds9NMfFk_6XAMzJDmua-35" value="" style="shape=singleArrow;whiteSpace=wrap;html=1;fillColor=#d5e8d4;strokeColor=#82b366;" vertex="1" parent="-2G8b0cuvRmea7sw8rwf-1">
          <mxGeometry x="377" y="238.55" width="50" height="21.1" as="geometry" />
        </mxCell>
        <mxCell id="fds9NMfFk_6XAMzJDmua-36" value="" style="shape=singleArrow;whiteSpace=wrap;html=1;fillColor=#d5e8d4;strokeColor=#82b366;" vertex="1" parent="-2G8b0cuvRmea7sw8rwf-1">
          <mxGeometry x="547" y="238.55" width="50" height="21.1" as="geometry" />
        </mxCell>
        <mxCell id="fds9NMfFk_6XAMzJDmua-38" value="" style="endArrow=none;html=1;rounded=0;strokeWidth=1;dashed=1;strokeColor=light-dark(#707070, #ededed);" edge="1" parent="-2G8b0cuvRmea7sw8rwf-1">
          <mxGeometry width="50" height="50" relative="1" as="geometry">
            <mxPoint x="270.25" y="274.1" as="sourcePoint" />
            <mxPoint x="350.25" y="274.1" as="targetPoint" />
          </mxGeometry>
        </mxCell>
        <mxCell id="fds9NMfFk_6XAMzJDmua-39" value="" style="endArrow=none;html=1;rounded=0;strokeWidth=1;dashed=1;strokeColor=light-dark(#707070, #ededed);" edge="1" parent="-2G8b0cuvRmea7sw8rwf-1">
          <mxGeometry width="50" height="50" relative="1" as="geometry">
            <mxPoint x="442" y="274.1" as="sourcePoint" />
            <mxPoint x="522" y="274.1" as="targetPoint" />
          </mxGeometry>
        </mxCell>
        <mxCell id="fds9NMfFk_6XAMzJDmua-40" value="" style="endArrow=none;html=1;rounded=0;strokeWidth=1;dashed=1;strokeColor=light-dark(#707070, #ededed);" edge="1" parent="-2G8b0cuvRmea7sw8rwf-1">
          <mxGeometry width="50" height="50" relative="1" as="geometry">
            <mxPoint x="612" y="274.1" as="sourcePoint" />
            <mxPoint x="692" y="274.1" as="targetPoint" />
          </mxGeometry>
        </mxCell>
        <mxCell id="fds9NMfFk_6XAMzJDmua-41" value="&lt;b&gt;Object type&lt;/b&gt;: Tables&lt;div&gt;&lt;br&gt;&lt;/div&gt;&lt;div&gt;&lt;b&gt;Load&lt;/b&gt;:&lt;/div&gt;&lt;ul&gt;&lt;li&gt;&lt;span style=&quot;background-color: transparent; color: light-dark(rgb(0, 0, 0), rgb(255, 255, 255));&quot;&gt;Batch processing&lt;/span&gt;&lt;/li&gt;&lt;li&gt;&lt;span style=&quot;background-color: transparent; color: light-dark(rgb(0, 0, 0), rgb(255, 255, 255));&quot;&gt;Full load&lt;/span&gt;&lt;/li&gt;&lt;li&gt;&lt;span style=&quot;background-color: transparent; color: light-dark(rgb(0, 0, 0), rgb(255, 255, 255));&quot;&gt;Truncate &amp;amp; Insert&lt;/span&gt;&lt;/li&gt;&lt;/ul&gt;&lt;div&gt;&lt;div&gt;No transformations&lt;/div&gt;&lt;/div&gt;&lt;div&gt;&lt;br&gt;&lt;/div&gt;&lt;div&gt;&lt;b&gt;Data model&lt;/b&gt;: None (as-is)&lt;/div&gt;" style="text;html=1;align=left;verticalAlign=middle;resizable=0;points=[];autosize=1;strokeColor=none;fillColor=none;fontSize=8;" vertex="1" parent="-2G8b0cuvRmea7sw8rwf-1">
          <mxGeometry x="252" y="276.1" width="120" height="120" as="geometry" />
        </mxCell>
        <mxCell id="fds9NMfFk_6XAMzJDmua-42" value="&lt;b&gt;Object type&lt;/b&gt;: Tables&lt;div&gt;&lt;br&gt;&lt;/div&gt;&lt;div&gt;&lt;b&gt;Load&lt;/b&gt;:&lt;/div&gt;&lt;ul&gt;&lt;li&gt;&lt;span style=&quot;background-color: transparent; color: light-dark(rgb(0, 0, 0), rgb(255, 255, 255));&quot;&gt;Batch processing&lt;/span&gt;&lt;/li&gt;&lt;li&gt;&lt;span style=&quot;background-color: transparent; color: light-dark(rgb(0, 0, 0), rgb(255, 255, 255));&quot;&gt;Full load&lt;/span&gt;&lt;/li&gt;&lt;li&gt;&lt;span style=&quot;background-color: transparent; color: light-dark(rgb(0, 0, 0), rgb(255, 255, 255));&quot;&gt;Truncate &amp;amp; Insert&lt;/span&gt;&lt;/li&gt;&lt;/ul&gt;&lt;div&gt;Transformations:&lt;/div&gt;&lt;div&gt;&lt;ul&gt;&lt;li&gt;Cleansing&lt;/li&gt;&lt;li&gt;Standardization&lt;/li&gt;&lt;li&gt;Normalization&lt;/li&gt;&lt;li&gt;Derived columns&lt;/li&gt;&lt;/ul&gt;&lt;/div&gt;&lt;div&gt;&lt;br&gt;&lt;/div&gt;&lt;div&gt;&lt;b&gt;Data model&lt;/b&gt;: None (as-is)&lt;/div&gt;" style="text;html=1;align=left;verticalAlign=middle;resizable=0;points=[];autosize=1;strokeColor=none;fillColor=none;fontSize=8;" vertex="1" parent="-2G8b0cuvRmea7sw8rwf-1">
          <mxGeometry x="422" y="276.1" width="120" height="170" as="geometry" />
        </mxCell>
        <mxCell id="fds9NMfFk_6XAMzJDmua-43" value="&lt;b&gt;Object type&lt;/b&gt;: Views&lt;div&gt;&lt;br&gt;&lt;/div&gt;&lt;div&gt;&lt;b&gt;No Load&lt;/b&gt;&lt;/div&gt;&lt;div&gt;&lt;b&gt;&lt;br&gt;&lt;/b&gt;&lt;/div&gt;&lt;div&gt;Transformations:&lt;/div&gt;&lt;div&gt;&lt;ul&gt;&lt;li&gt;Data integration&lt;/li&gt;&lt;li&gt;Aggregations&lt;/li&gt;&lt;li&gt;Business Logics&lt;/li&gt;&lt;/ul&gt;&lt;/div&gt;&lt;div&gt;&lt;br&gt;&lt;/div&gt;&lt;div&gt;&lt;b&gt;Data model&lt;/b&gt;:&lt;/div&gt;&lt;div&gt;&lt;ul&gt;&lt;li&gt;Star schema&lt;/li&gt;&lt;li&gt;Flat table&lt;/li&gt;&lt;li&gt;Aggregated table&lt;/li&gt;&lt;/ul&gt;&lt;/div&gt;" style="text;html=1;align=left;verticalAlign=middle;resizable=0;points=[];autosize=1;strokeColor=none;fillColor=none;fontSize=8;" vertex="1" parent="-2G8b0cuvRmea7sw8rwf-1">
          <mxGeometry x="592" y="276.1" width="120" height="170" as="geometry" />
        </mxCell>
        <mxCell id="xjEt2fmADgh7Nt4FLmKk-1" value="" style="rounded=0;whiteSpace=wrap;html=1;fillColor=none;" vertex="1" parent="-2G8b0cuvRmea7sw8rwf-1">
          <mxGeometry x="82" y="139" width="74.49" height="167" as="geometry" />
        </mxCell>
        <mxCell id="xjEt2fmADgh7Nt4FLmKk-2" value="" style="group;fontStyle=4" connectable="0" vertex="1" parent="-2G8b0cuvRmea7sw8rwf-1">
          <mxGeometry x="25.319999999999993" y="240.10000000000002" width="30.62" height="20" as="geometry" />
        </mxCell>
        <mxCell id="xjEt2fmADgh7Nt4FLmKk-3" value="" style="image;aspect=fixed;html=1;points=[];align=center;fontSize=12;image=img/lib/azure2/general/Folder_Blank.svg;" vertex="1" parent="xjEt2fmADgh7Nt4FLmKk-2">
          <mxGeometry x="2.4974449675531276" width="19.71428571428571" height="16.000000000000004" as="geometry" />
        </mxCell>
        <mxCell id="xjEt2fmADgh7Nt4FLmKk-4" value="" style="sketch=0;aspect=fixed;pointerEvents=1;shadow=0;dashed=0;html=1;strokeColor=none;labelPosition=center;verticalLabelPosition=bottom;verticalAlign=top;align=center;fillColor=#3399FF;shape=mxgraph.mscae.enterprise.document;movable=1;resizable=1;rotatable=1;deletable=1;editable=1;locked=0;connectable=1;" vertex="1" parent="xjEt2fmADgh7Nt4FLmKk-2">
          <mxGeometry x="18.017256648428543" y="10.428571428571425" width="6.8571428571428585" height="8.571428571428571" as="geometry" />
        </mxCell>
        <mxCell id="xjEt2fmADgh7Nt4FLmKk-5" value="" style="endArrow=classic;html=1;rounded=0;exitX=1;exitY=1;exitDx=0;exitDy=0;exitPerimeter=0;entryX=-0.011;entryY=0.349;entryDx=0;entryDy=0;entryPerimeter=0;" edge="1" parent="-2G8b0cuvRmea7sw8rwf-1" source="fds9NMfFk_6XAMzJDmua-23" target="xjEt2fmADgh7Nt4FLmKk-1">
          <mxGeometry width="50" height="50" relative="1" as="geometry">
            <mxPoint x="232" y="296" as="sourcePoint" />
            <mxPoint x="282" y="246" as="targetPoint" />
          </mxGeometry>
        </mxCell>
        <mxCell id="xjEt2fmADgh7Nt4FLmKk-6" value="" style="endArrow=classic;html=1;rounded=0;exitX=1;exitY=1;exitDx=0;exitDy=0;exitPerimeter=0;entryX=0.001;entryY=0.72;entryDx=0;entryDy=0;entryPerimeter=0;" edge="1" parent="-2G8b0cuvRmea7sw8rwf-1" source="xjEt2fmADgh7Nt4FLmKk-4" target="xjEt2fmADgh7Nt4FLmKk-1">
          <mxGeometry width="50" height="50" relative="1" as="geometry">
            <mxPoint x="82" y="236" as="sourcePoint" />
            <mxPoint x="112" y="236" as="targetPoint" />
          </mxGeometry>
        </mxCell>
        <mxCell id="xjEt2fmADgh7Nt4FLmKk-7" value="Landing" style="text;html=1;align=center;verticalAlign=middle;whiteSpace=wrap;rounded=0;fillColor=default;" vertex="1" parent="-2G8b0cuvRmea7sw8rwf-1">
          <mxGeometry x="89.25" y="126" width="60" height="30" as="geometry" />
        </mxCell>
        <mxCell id="xjEt2fmADgh7Nt4FLmKk-8" value="/crm/" style="text;html=1;align=center;verticalAlign=middle;resizable=0;points=[];autosize=1;strokeColor=none;fillColor=none;" vertex="1" parent="-2G8b0cuvRmea7sw8rwf-1">
          <mxGeometry x="94.25" y="187" width="50" height="30" as="geometry" />
        </mxCell>
        <mxCell id="xjEt2fmADgh7Nt4FLmKk-9" value="/erp/" style="text;html=1;align=center;verticalAlign=middle;resizable=0;points=[];autosize=1;strokeColor=none;fillColor=none;" vertex="1" parent="-2G8b0cuvRmea7sw8rwf-1">
          <mxGeometry x="94.25" y="246.10000000000002" width="50" height="30" as="geometry" />
        </mxCell>
        <mxCell id="xjEt2fmADgh7Nt4FLmKk-12" value="" style="shape=singleArrow;whiteSpace=wrap;html=1;fillColor=#d5e8d4;strokeColor=#82b366;" vertex="1" parent="-2G8b0cuvRmea7sw8rwf-1">
          <mxGeometry x="157" y="238.55" width="80" height="21.1" as="geometry" />
        </mxCell>
      </root>
    </mxGraphModel>
  </diagram>
</mxfile>
